<svg xmlns="http://www.w3.org/2000/svg" viewBox="0 0 402.971 91.406">
  <g paint-order="markers fill stroke" transform="translate(-90.09 -212.855)">
    <path fill="#3600ad" d="M420.9 214.01v83.98h20.907v-28.978h13.048l15.715 28.978h22.49v-.863l-19.03-33.666c5.574-2.451 9.587-5.599 12.038-9.443 2.5-3.893 3.748-8.819 3.748-14.778 0-8.026-2.978-14.226-8.937-18.6-5.96-4.42-14.274-6.63-24.943-6.63zm20.907 16.867h13.552c9.083 0 13.625 3.533 13.625 10.598 0 7.16-4.35 10.74-13.048 10.74h-14.13zM339.873 214.01v83.98h20.906v-22.345l9.157-9.012 20.4 31.357h24.654l-30.926-46.28 30.133-37.7h-26.095l-20.258 25.517-7.065 9.516V214.01zm-139.273 0-33.233 83.98h20.906c42.007-113.473-40.554 109.273 22.059-59.687 20.555 55.088 7.717 20.565 22.348 59.687h21.049l-33.52-83.98zm-110.51 0v16.867h26.744v67.113h20.906v-67.113h27.248V214.01zm202.855-1.155c-9.467 0-17.205 2.331-23.213 6.993-6.007 4.661-9.011 10.598-9.011 17.806 0 3.749.601 6.991 1.802 9.73 1.202 2.692 3.052 5.071 5.551 7.137 2.5 2.067 5.671 3.87 9.516 5.409 3.893 1.49 8.675 2.906 14.346 4.252 5.67 1.345 9.684 2.859 12.039 4.54 2.354 1.683 3.53 3.918 3.53 6.706 0 2.547-1.103 4.589-3.314 6.127-2.162 1.538-5.118 2.306-8.867 2.306-5.527 0-9.685-.984-12.472-2.955-2.74-1.97-4.108-5.19-4.108-9.66h-20.906c0 5.72 1.513 10.67 4.54 14.852 3.077 4.18 7.427 7.4 13.05 9.658 5.623 2.259 11.918 3.389 18.886 3.389 10.237 0 18.31-2.163 24.221-6.489 5.911-4.373 8.867-10.307 8.867-17.804 0-7.353-2.427-13.193-7.28-17.518-4.807-4.325-12.807-7.713-24.005-10.164-5.575-1.394-9.564-2.836-11.967-4.326-2.403-1.538-3.605-3.532-3.605-5.983 0-2.45 1.154-4.495 3.46-6.129 2.308-1.634 5.312-2.45 9.013-2.45 4.18 0 7.496 1.034 9.947 3.1 2.499 2.067 3.748 4.638 3.748 7.714h20.834c0-8.122-3.196-14.514-9.588-19.176-6.344-4.71-14.681-7.065-25.014-7.065z" font-family="Roboto" font-size="147.636" font-weight="700" letter-spacing="0" style="line-height:.7;-inkscape-font-specification:&quot;Roboto, Bold&quot;;font-variant-ligatures:discretionary-ligatures;font-variant-caps:all-small-caps" word-spacing="0"/>
    <ellipse cx="210.332" cy="283.068" fill="#00ae79" rx="13.352" ry="13.333"/>
  </g>
</svg>
